# File created by Blade
# Date/Time:  Tue Sep 30 19:36:22 2014
#---------------------------------------------------------
:version 1.10
:name HOM
:units
  mass 1.0
  length 1.000000
  angle deg
:documentation
     Acclaim Skeleton File
:root
   axis xyz
   order TX TY TZ RX RY RZ
   position 0.000000 0.000000 0.000000
   orientation 0 0 0
:bonedata
   begin
      id 1
      name Spine_dum
      direction 0.000000 1.000000 0.000000
      length 3.241213
      axis 0.0 0.0 0.0 xyz
   end
   begin
      id 2
      name LeftUpLeg_dum
      direction 1.000000 0.000000 0.000000
      length 3.434019
      axis 0.0 0.0 0.0 xyz
   end
   begin
      id 3
      name RightUpLeg_dum
      direction -1.000000 0.000000 0.000000
      length 3.434019
      axis 0.0 0.0 0.0 xyz
   end
   begin
      id 4
      name Spine
      direction 0.000000 1.000000 0.000000
      length 0.000000
      axis 0.0 0.0 0.0 xyz
      dof rx ry rz
   end
   begin
      id 5
      name Spine_dum1
      direction 0.000000 1.000000 0.000000
      length 18.382958
      axis 0.0 0.0 0.0 xyz
   end
   begin
      id 6
      name Spine_dum2
      direction 0.000000 1.000000 0.000000
      length 12.828261
      axis 0.0 0.0 0.0 xyz
   end
   begin
      id 7
      name Spine_dum3
      direction 0.000000 1.000000 0.000000
      length 12.828261
      axis 0.0 0.0 0.0 xyz
   end
   begin
      id 8
      name Head
      direction 0.000000 1.000000 0.000000
      length 4.527550
      axis 0.0 0.0 0.0 xyz
      dof rx ry rz
   end
   begin
      id 9
      name LeftShoulder
      direction 1.000000 0.000000 0.000000
      length 7.748055
      axis 0.0 0.0 -90.0 xyz
      dof rx ry rz
   end
   begin
      id 10
      name LeftArm
      direction 1.000000 0.000000 0.000000
      length 10.635614
      axis 0.0 0.0 -90.0 xyz
      dof rx ry rz
   end
   begin
      id 11
      name LeftForeArm
      direction 1.000000 0.000000 0.000000
      length 8.346755
      axis 0.0 0.0 -90.0 xyz
      dof ry rz rx
   end
   begin
      id 12
      name LeftHand
      direction 0.000000 0.000000 0.000000
      length 0.000000
      axis 0.0 0.0 -90.0 xyz
      dof rx ry rz
   end
   begin
      id 13
      name LeftHand_dum1
      direction 0.000000 0.000000 0.000000
      length 0.000000
      axis 0.0 0.0 -90.0 xyz
   end
   begin
      id 14
      name LeftHand_dum2
      direction 1.000000 0.000000 0.000000
      length 3.937000
      axis 0.0 0.0 -90.0 xyz
   end
   begin
      id 15
      name LeftHandThumb1
      direction 0.000000 0.000000 1.000000
      length 3.937000
      axis 0.0 0.0 -90.0 xyz
      dof rx rz ry
   end
   begin
      id 16
      name RightShoulder
      direction -1.000000 0.000000 0.000000
      length 7.748055
      axis 0.0 0.0 90.0 xyz
      dof rx ry rz
   end
   begin
      id 17
      name RightArm
      direction -1.000000 0.000000 0.000000
      length 10.635614
      axis 0.0 0.0 90.0 xyz
      dof rx ry rz
   end
   begin
      id 18
      name RightForeArm
      direction -1.000000 0.000000 0.000000
      length 8.346755
      axis 0.0 0.0 90.0 xyz
      dof ry rz rx
   end
   begin
      id 19
      name RightHand
      direction 0.000000 0.000000 0.000000
      length 0.000000
      axis 0.0 0.0 90.0 xyz
      dof rx ry rz
   end
   begin
      id 20
      name RightHand_dum1
      direction 0.000000 0.000000 0.000000
      length 0.000000
      axis 0.0 0.0 90.0 xyz
   end
   begin
      id 21
      name RightHand_dum2
      direction -1.000000 0.000000 0.000000
      length 3.937000
      axis 0.0 0.0 90.0 xyz
   end
   begin
      id 22
      name RightHandThumb1
      direction 0.000000 0.000000 1.000000
      length 3.937000
      axis 0.0 0.0 90.0 xyz
      dof rx rz ry
   end
   begin
      id 23
      name LeftUpLeg
      direction 0.000000 -1.000000 0.000000
      length 15.713025
      axis 0.0 0.0 0.0 xyz
      dof rx ry rz
   end
   begin
      id 24
      name LeftLeg
      direction 0.000000 -1.000000 0.000000
      length 14.435119
      axis 0.0 0.0 0.0 xyz
      dof rx ry rz
   end
   begin
      id 25
      name LeftFoot
      direction 0.000000 -0.258819 0.965926
      length 4.938895
      axis 15.0 0.0 0.0 xyz
      dof rx ry rz
   end
   begin
      id 26
      name LeftToeBase
      direction 0.000000 0.000000 1.000000
      length 2.952750
      axis 0.0 0.0 0.0 xyz
      dof rx ry rz
   end
   begin
      id 27
      name RightUpLeg
      direction 0.000000 -1.000000 0.000000
      length 15.713025
      axis 0.0 0.0 0.0 xyz
      dof rx ry rz
   end
   begin
      id 28
      name RightLeg
      direction 0.000000 -1.000000 0.000000
      length 14.435119
      axis 0.0 0.0 0.0 xyz
      dof rx ry rz
   end
   begin
      id 29
      name RightFoot
      direction 0.000000 -0.258819 0.965926
      length 4.938895
      axis 15.0 0.0 0.0 xyz
      dof rx ry rz
   end
   begin
      id 30
      name RightToeBase
      direction 0.000000 0.000000 1.000000
      length 2.952750
      axis 0.0 0.0 0.0 xyz
      dof rx ry rz
   end
:hierarchy
   begin
      root Spine_dum LeftUpLeg_dum RightUpLeg_dum
      Spine_dum Spine
      LeftUpLeg_dum LeftUpLeg
      RightUpLeg_dum RightUpLeg
      Spine Spine_dum1 Spine_dum2 Spine_dum3
      Spine_dum1 Head
      Spine_dum2 LeftShoulder
      Spine_dum3 RightShoulder
      LeftShoulder LeftArm
      LeftArm LeftForeArm
      LeftForeArm LeftHand
      LeftHand LeftHand_dum1 LeftHand_dum2
      LeftHand_dum1 LeftHandThumb1
      RightShoulder RightArm
      RightArm RightForeArm
      RightForeArm RightHand
      RightHand RightHand_dum1 RightHand_dum2
      RightHand_dum1 RightHandThumb1
      LeftUpLeg LeftLeg
      LeftLeg LeftFoot
      LeftFoot LeftToeBase
      RightUpLeg RightLeg
      RightLeg RightFoot
      RightFoot RightToeBase
   end

# File created by Blade
# Date/Time:  Tue Sep 23 19:18:47 2014
# Frame Rate: 120.000 fps
#------------------------------------------------------
:FULLY-SPECIFIED
:DEGREES
771
root -6.795123 33.243457 5.990746 48.818317 12.128720 -21.829694
Spine -41.208417 -8.303785 24.632386
Head 15.431532 1.877584 17.533562
LeftShoulder -17.871689 43.823404 26.124920
LeftArm 47.744149 -25.429579 -84.188345
LeftForeArm -6.033329 0.000000 95.975755
LeftHand -52.629167 -0.000000 22.142688
LeftHandThumb1 -26.253704 0.000000 33.147579
RightShoulder -28.505532 -46.567890 8.734850
RightArm 50.810019 10.302137 84.121635
RightForeArm 53.838786 -0.000000 5.106454
RightHand 16.217099 0.000000 -5.442246
RightHandThumb1 -24.326973 -0.000000 -32.862282
LeftUpLeg -46.393739 21.433039 18.258668
LeftLeg 9.613243 -0.000000 -0.000000
LeftFoot -4.874900 24.692470 8.216803
LeftToeBase 1.877728 -0.000000 -0.000000
RightUpLeg -51.330589 -12.590513 6.581551
RightLeg 33.957541 -0.000000 -0.000000
RightFoot 8.819143 7.845409 34.771698
RightToeBase 17.181987 -0.000000 -0.000000
772
root -7.002477 33.185902 5.969457 48.848714 11.180158 -21.253836
Spine -40.770288 -8.734887 23.955169
Head 14.948461 2.703805 17.341550
LeftShoulder -18.212060 44.193380 25.668090
LeftArm 47.739496 -27.262162 -86.299806
LeftForeArm -5.902141 0.000000 95.810598
LeftHand -52.982078 0.000000 22.088310
LeftHandThumb1 -26.253704 0.000000 33.147579
RightShoulder -27.305524 -46.460164 7.643291
RightArm 51.349800 9.514197 83.890284
RightForeArm 52.943229 -0.000000 5.862554
RightHand 16.248628 -0.000000 -5.694030
RightHandThumb1 -24.326973 -0.000000 -32.862282
LeftUpLeg -46.046264 21.358583 17.966042
LeftLeg 9.777407 -0.000000 -0.000000
LeftFoot -4.898554 25.185981 7.809924
LeftToeBase 1.968535 -0.000000 -0.000000
RightUpLeg -51.969389 -11.211235 7.279581
RightLeg 29.679561 -0.000000 -0.000000
RightFoot 8.824856 7.239478 36.348716
RightToeBase 16.459246 -0.000000 -0.000000
773
root -7.214645 33.123146 5.949063 48.865990 10.332896 -20.568762
Spine -40.308433 -9.207997 23.227547
Head 14.291500 3.504651 17.062075
LeftShoulder -18.670351 44.395338 25.124807
LeftArm 47.834035 -28.932758 -88.150049
LeftForeArm -5.453918 -0.000000 95.516432
LeftHand -53.552007 -0.000000 22.189875
LeftHandThumb1 -26.253704 0.000000 33.147579
RightShoulder -26.194299 -46.279579 6.513608
RightArm 51.879525 8.652443 83.483946
RightForeArm 52.255654 0.000000 6.381497
RightHand 16.437714 -0.000000 -5.806847
RightHandThumb1 -24.326973 -0.000000 -32.862282
LeftUpLeg -45.726816 21.170501 17.642175
LeftLeg 9.916744 -0.000000 -0.000000
LeftFoot -4.935753 25.605074 7.327543
LeftToeBase 2.099555 -0.000000 -0.000000
RightUpLeg -52.442101 -9.766856 7.628799
RightLeg 25.591456 -0.000000 -0.000000
RightFoot 8.587514 6.099371 37.913282
RightToeBase 16.055743 -0.000000 -0.000000
774
root -7.421166 33.050497 5.937056 48.774590 9.633683 -19.695838
Spine -39.819112 -9.706807 22.341903
Head 13.668327 4.029619 16.654080
LeftShoulder -18.845166 44.481219 24.774676
LeftArm 48.075862 -30.566461 -90.026428
LeftForeArm -5.074433 -0.000000 95.100799
LeftHand -53.989164 -0.000000 22.098167
LeftHandThumb1 -26.253704 0.000000 33.147579
RightShoulder -25.268209 -46.190275 5.443457
RightArm 52.333250 7.773144 82.915539
RightForeArm 52.096731 -0.000000 6.964060
RightHand 16.614830 -0.000000 -5.864544
RightHandThumb1 -24.326973 -0.000000 -32.862282
LeftUpLeg -45.419754 20.957612 17.091360
LeftLeg 10.031378 -0.000000 -0.000000
LeftFoot -5.063910 25.702718 6.720328
LeftToeBase 2.066212 -0.000000 -0.000000
RightUpLeg -52.782187 -8.546208 7.714704
RightLeg 22.026861 -0.000000 -0.000000
RightFoot 8.243666 4.733956 38.984514
RightToeBase 14.536410 -0.000000 -0.000000
